<svg viewBox="0 0 400 400" xmlns="http://www.w3.org/2000/svg">
  <rect width="400" height="400" fill="#f5f5f5"/>
  <g stroke="#333" stroke-width="2" fill="none">
    <!-- Documents -->
    <rect x="60" y="100" width="60" height="80" rx="4"/>
    <rect x="80" y="120" width="60" height="80" rx="4" fill="#f5f5f5"/>
    <rect x="100" y="140" width="60" height="80" rx="4" fill="#f5f5f5"/>
    <!-- Arrow -->
    <path d="M180 180 L220 180" stroke-width="2"/>
    <polygon points="220,175 230,180 220,185" fill="#333"/>
    <!-- Vector database -->
    <ellipse cx="290" cy="160" rx="50" ry="20"/>
    <path d="M240 160 L240 220 Q240 240 290 240 Q340 240 340 220 L340 160"/>
    <ellipse cx="290" cy="220" rx="50" ry="20"/>
    <!-- Output -->
    <path d="M290 260 L290 290" stroke-width="2"/>
    <polygon points="285,290 290,300 295,290" fill="#333"/>
    <circle cx="290" cy="320" r="20"/>
  </g>
  <text x="200" y="370" text-anchor="middle" font-family="monospace" font-size="14" fill="#666">RAG Pipeline</text>
</svg>