<svg viewBox="0 0 1800 250" fill="none" stroke="currentColor" stroke-width="2" xmlns="http://www.w3.org/2000/svg">
  <!-- 3D coordinate system hint -->
  <line x1="80" y1="220" x2="80" y2="30" stroke-width="1" opacity="0.2" />
  <line x1="80" y1="220" x2="280" y2="220" stroke-width="1" opacity="0.2" />
  <line x1="80" y1="220" x2="50" y2="190" stroke-width="1" opacity="0.2" />

  <!-- Scattered points in vector space - cluster 1 -->
  <circle cx="220" cy="80" r="10" fill="currentColor" opacity="0.7" />
  <circle cx="260" cy="105" r="10" fill="currentColor" opacity="0.7" />
  <circle cx="235" cy="130" r="10" fill="currentColor" opacity="0.7" />
  <circle cx="285" cy="75" r="10" fill="currentColor" opacity="0.7" />
  <circle cx="300" cy="115" r="10" fill="currentColor" opacity="0.7" />

  <!-- Cluster boundary -->
  <ellipse cx="260" cy="100" rx="75" ry="55" stroke-dasharray="5,3" opacity="0.3" />

  <!-- Cluster 2 -->
  <circle cx="450" cy="170" r="8" fill="currentColor" opacity="0.6" />
  <circle cx="490" cy="190" r="8" fill="currentColor" opacity="0.6" />
  <circle cx="465" cy="210" r="8" fill="currentColor" opacity="0.6" />
  <circle cx="510" cy="180" r="8" fill="currentColor" opacity="0.6" />

  <ellipse cx="480" cy="190" rx="60" ry="45" stroke-dasharray="5,3" opacity="0.3" />

  <!-- Cluster 3 -->
  <circle cx="420" cy="55" r="8" fill="currentColor" opacity="0.5" />
  <circle cx="455" cy="75" r="8" fill="currentColor" opacity="0.5" />
  <circle cx="435" cy="100" r="8" fill="currentColor" opacity="0.5" />

  <ellipse cx="435" cy="75" rx="45" ry="40" stroke-dasharray="5,3" opacity="0.3" />

  <!-- Central transformation zone -->
  <rect x="600" y="55" width="150" height="140" rx="8" opacity="0.2" />
  <text x="640" y="130" font-family="monospace" font-size="18" fill="currentColor" opacity="0.4">f(x)</text>

  <!-- Word/Text inputs -->
  <rect x="120" y="175" width="70" height="28" rx="4" opacity="0.5" />
  <text x="135" y="195" font-family="monospace" font-size="12" fill="currentColor" opacity="0.5">cat</text>

  <rect x="145" y="210" width="85" height="28" rx="4" opacity="0.5" />
  <text x="158" y="230" font-family="monospace" font-size="12" fill="currentColor" opacity="0.5">kitten</text>

  <!-- Arrows showing embedding transformation -->
  <path d="M200 189 Q300 170 340 145" stroke-dasharray="4,4" opacity="0.4" />
  <path d="M235 224 Q340 205 360 185" stroke-dasharray="4,4" opacity="0.4" />

  <!-- Output vector space - more organized clusters -->
  <circle cx="900" cy="70" r="11" fill="currentColor" opacity="0.8" />
  <circle cx="940" cy="85" r="11" fill="currentColor" opacity="0.8" />
  <circle cx="915" cy="105" r="11" fill="currentColor" opacity="0.8" />
  <circle cx="965" cy="80" r="11" fill="currentColor" opacity="0.8" />

  <circle cx="1080" cy="160" r="9" fill="currentColor" opacity="0.6" />
  <circle cx="1120" cy="175" r="9" fill="currentColor" opacity="0.6" />
  <circle cx="1095" cy="195" r="9" fill="currentColor" opacity="0.6" />
  <circle cx="1145" cy="165" r="9" fill="currentColor" opacity="0.6" />

  <circle cx="1220" cy="85" r="8" fill="currentColor" opacity="0.5" />
  <circle cx="1260" cy="105" r="8" fill="currentColor" opacity="0.5" />
  <circle cx="1240" cy="130" r="8" fill="currentColor" opacity="0.5" />

  <!-- Distance lines showing similarity -->
  <line x1="940" y1="85" x2="915" y2="105" stroke-dasharray="3,3" opacity="0.5" />
  <line x1="900" y1="70" x2="940" y2="85" stroke-dasharray="3,3" opacity="0.5" />
  <line x1="1080" y1="160" x2="1120" y2="175" stroke-dasharray="3,3" opacity="0.5" />

  <!-- Cosine similarity arc -->
  <path d="M1000 115 Q1025 140 1060 150" stroke-width="1.5" opacity="0.4" />
  <text x="1010" y="145" font-family="monospace" font-size="10" fill="currentColor" opacity="0.3">cos(θ)</text>

  <!-- Arrow from transform to output -->
  <path d="M750 125 L840 105" stroke-width="2" />
  <polygon points="840,105 824,105 828,118" fill="currentColor" />

  <!-- More vectors on right -->
  <circle cx="1350" cy="100" r="7" fill="currentColor" opacity="0.4" />
  <circle cx="1390" cy="120" r="7" fill="currentColor" opacity="0.4" />
  <circle cx="1420" cy="95" r="7" fill="currentColor" opacity="0.4" />

  <circle cx="1500" cy="160" r="6" fill="currentColor" opacity="0.3" />
  <circle cx="1540" cy="175" r="6" fill="currentColor" opacity="0.3" />
  <circle cx="1520" cy="145" r="6" fill="currentColor" opacity="0.3" />

  <circle cx="1620" cy="110" r="5" fill="currentColor" opacity="0.2" />
  <circle cx="1660" cy="130" r="5" fill="currentColor" opacity="0.2" />
  <circle cx="1700" cy="105" r="5" fill="currentColor" opacity="0.2" />

  <!-- Dimension indicators -->
  <text x="1720" y="220" font-family="monospace" font-size="12" fill="currentColor" opacity="0.3">[1536]</text>
</svg>
