<svg viewBox="0 0 1800 250" fill="none" stroke="currentColor" stroke-width="2" xmlns="http://www.w3.org/2000/svg">
  <!-- Input text bar -->
  <rect x="80" y="30" width="450" height="45" rx="6" />
  <text x="100" y="60" font-family="monospace" font-size="18" fill="currentColor" opacity="0.6">Hello, how are you today?</text>

  <!-- Arrow down -->
  <line x1="305" y1="75" x2="305" y2="100" stroke-width="2" />
  <polygon points="305,100 297,88 313,88" fill="currentColor" />

  <!-- Tokenization splitting -->
  <rect x="80" y="110" width="70" height="38" rx="4" />
  <text x="92" y="135" font-family="monospace" font-size="13" fill="currentColor" opacity="0.7">Hello</text>

  <rect x="158" y="110" width="32" height="38" rx="4" />
  <text x="166" y="135" font-family="monospace" font-size="13" fill="currentColor" opacity="0.7">,</text>

  <rect x="198" y="110" width="55" height="38" rx="4" />
  <text x="207" y="135" font-family="monospace" font-size="13" fill="currentColor" opacity="0.7">how</text>

  <rect x="261" y="110" width="48" height="38" rx="4" />
  <text x="270" y="135" font-family="monospace" font-size="13" fill="currentColor" opacity="0.7">are</text>

  <rect x="317" y="110" width="55" height="38" rx="4" />
  <text x="326" y="135" font-family="monospace" font-size="13" fill="currentColor" opacity="0.7">you</text>

  <rect x="380" y="110" width="70" height="38" rx="4" />
  <text x="390" y="135" font-family="monospace" font-size="13" fill="currentColor" opacity="0.7">today</text>

  <rect x="458" y="110" width="32" height="38" rx="4" />
  <text x="467" y="135" font-family="monospace" font-size="13" fill="currentColor" opacity="0.7">?</text>

  <!-- Arrows to token IDs -->
  <line x1="115" y1="148" x2="115" y2="170" stroke-dasharray="3,3" opacity="0.5" />
  <line x1="174" y1="148" x2="174" y2="170" stroke-dasharray="3,3" opacity="0.5" />
  <line x1="226" y1="148" x2="226" y2="170" stroke-dasharray="3,3" opacity="0.5" />
  <line x1="285" y1="148" x2="285" y2="170" stroke-dasharray="3,3" opacity="0.5" />
  <line x1="344" y1="148" x2="344" y2="170" stroke-dasharray="3,3" opacity="0.5" />
  <line x1="415" y1="148" x2="415" y2="170" stroke-dasharray="3,3" opacity="0.5" />
  <line x1="474" y1="148" x2="474" y2="170" stroke-dasharray="3,3" opacity="0.5" />

  <!-- Token IDs -->
  <rect x="88" y="178" width="55" height="32" rx="4" fill="currentColor" opacity="0.1" />
  <text x="100" y="200" font-family="monospace" font-size="11" fill="currentColor">9906</text>

  <rect x="153" y="178" width="42" height="32" rx="4" fill="currentColor" opacity="0.1" />
  <text x="164" y="200" font-family="monospace" font-size="11" fill="currentColor">11</text>

  <rect x="203" y="178" width="48" height="32" rx="4" fill="currentColor" opacity="0.1" />
  <text x="210" y="200" font-family="monospace" font-size="11" fill="currentColor">1650</text>

  <rect x="259" y="178" width="52" height="32" rx="4" fill="currentColor" opacity="0.1" />
  <text x="270" y="200" font-family="monospace" font-size="11" fill="currentColor">527</text>

  <rect x="319" y="178" width="50" height="32" rx="4" fill="currentColor" opacity="0.1" />
  <text x="328" y="200" font-family="monospace" font-size="11" fill="currentColor">499</text>

  <rect x="377" y="178" width="75" height="32" rx="4" fill="currentColor" opacity="0.1" />
  <text x="388" y="200" font-family="monospace" font-size="11" fill="currentColor">11296</text>

  <rect x="460" y="178" width="40" height="32" rx="4" fill="currentColor" opacity="0.1" />
  <text x="472" y="200" font-family="monospace" font-size="11" fill="currentColor">30</text>

  <!-- Vocabulary visualization on right -->
  <rect x="620" y="25" width="300" height="200" rx="8" stroke-dasharray="5,3" opacity="0.4" />
  <text x="720" y="55" font-family="monospace" font-size="14" fill="currentColor" opacity="0.5">Vocabulary</text>

  <!-- Vocabulary entries -->
  <line x1="640" y1="70" x2="900" y2="70" opacity="0.2" />
  <text x="655" y="90" font-family="monospace" font-size="10" fill="currentColor" opacity="0.3">0: &lt;pad&gt;</text>
  <text x="655" y="108" font-family="monospace" font-size="10" fill="currentColor" opacity="0.3">1: &lt;unk&gt;</text>
  <text x="655" y="126" font-family="monospace" font-size="10" fill="currentColor" opacity="0.4">...</text>
  <text x="655" y="144" font-family="monospace" font-size="10" fill="currentColor" opacity="0.5">11: ,</text>
  <text x="655" y="162" font-family="monospace" font-size="10" fill="currentColor" opacity="0.4">...</text>
  <text x="655" y="180" font-family="monospace" font-size="10" fill="currentColor" opacity="0.5">499: you</text>
  <text x="655" y="198" font-family="monospace" font-size="10" fill="currentColor" opacity="0.5">9906: Hello</text>
  <text x="655" y="216" font-family="monospace" font-size="10" fill="currentColor" opacity="0.4">...</text>

  <!-- Size indicator -->
  <text x="780" y="90" font-family="monospace" font-size="9" fill="currentColor" opacity="0.3">|V| = 50,257</text>

  <!-- Output arrow -->
  <path d="M920 125 L1020 125" stroke-width="2" />
  <polygon points="1020,125 1005,117 1005,133" fill="currentColor" />

  <!-- Model input representation -->
  <rect x="1050" y="55" width="230" height="140" rx="8" />
  <text x="1115" y="90" font-family="monospace" font-size="13" fill="currentColor" opacity="0.5">Input Tensor</text>
  <line x1="1070" y1="105" x2="1260" y2="105" opacity="0.3" />
  <text x="1070" y="128" font-family="monospace" font-size="10" fill="currentColor" opacity="0.4">shape: [1, 7]</text>
  <text x="1070" y="150" font-family="monospace" font-size="10" fill="currentColor" opacity="0.5">[9906, 11, 1650,</text>
  <text x="1078" y="170" font-family="monospace" font-size="10" fill="currentColor" opacity="0.5">527, 499, 11296, 30]</text>

  <!-- More elements on right -->
  <rect x="1340" y="45" width="140" height="75" rx="6" opacity="0.3" />
  <line x1="1360" y1="72" x2="1460" y2="72" opacity="0.3" />
  <line x1="1360" y1="94" x2="1440" y2="94" opacity="0.3" />

  <rect x="1380" y="140" width="120" height="60" rx="6" opacity="0.2" />
  <line x1="1400" y1="165" x2="1480" y2="165" opacity="0.2" />
  <line x1="1400" y1="185" x2="1460" y2="185" opacity="0.2" />

  <!-- Decorative dots -->
  <circle cx="1560" cy="70" r="4" fill="currentColor" opacity="0.3" />
  <circle cx="1600" cy="90" r="4" fill="currentColor" opacity="0.3" />
  <circle cx="1640" cy="110" r="4" fill="currentColor" opacity="0.3" />
  <circle cx="1680" cy="130" r="4" fill="currentColor" opacity="0.3" />
  <circle cx="1720" cy="150" r="4" fill="currentColor" opacity="0.3" />
  <circle cx="1760" cy="170" r="4" fill="currentColor" opacity="0.3" />
</svg>
