<svg viewBox="0 0 1800 250" fill="none" stroke="currentColor" stroke-width="2" xmlns="http://www.w3.org/2000/svg">
  <!-- AI Brain on left -->
  <ellipse cx="150" cy="125" rx="70" ry="60" stroke-width="2" />
  <path d="M100 100 Q150 75 200 100" opacity="0.4" />
  <path d="M105 125 Q150 108 195 125" opacity="0.4" />
  <path d="M100 150 Q150 175 200 150" opacity="0.4" />

  <!-- Thought bubble -->
  <circle cx="235" cy="75" r="10" opacity="0.4" />
  <circle cx="265" cy="55" r="14" opacity="0.4" />
  <circle cx="310" cy="45" r="18" opacity="0.4" />

  <!-- Tool 1 - Calculator -->
  <rect x="380" y="25" width="100" height="85" rx="8" />
  <rect x="395" y="40" width="70" height="22" rx="2" fill="currentColor" opacity="0.1" />
  <text x="410" y="58" font-family="monospace" font-size="12" fill="currentColor" opacity="0.5">123</text>
  <rect x="395" y="68" width="16" height="16" rx="2" opacity="0.5" />
  <rect x="416" y="68" width="16" height="16" rx="2" opacity="0.5" />
  <rect x="437" y="68" width="16" height="16" rx="2" opacity="0.5" />
  <rect x="395" y="88" width="16" height="16" rx="2" opacity="0.5" />
  <rect x="416" y="88" width="16" height="16" rx="2" opacity="0.5" />
  <rect x="437" y="88" width="16" height="16" rx="2" opacity="0.5" />

  <!-- Tool 2 - Search/Web -->
  <circle cx="430" cy="165" r="35" />
  <circle cx="430" cy="165" r="24" />
  <line x1="430" y1="141" x2="430" y2="152" opacity="0.5" />
  <line x1="430" y1="178" x2="430" y2="189" opacity="0.5" />
  <line x1="406" y1="165" x2="417" y2="165" opacity="0.5" />
  <line x1="443" y1="165" x2="454" y2="165" opacity="0.5" />
  <circle cx="430" cy="165" r="6" fill="currentColor" opacity="0.4" />

  <!-- Tool 3 - Code/API -->
  <rect x="560" y="80" width="130" height="100" rx="6" />
  <line x1="560" y1="100" x2="690" y2="100" />
  <circle cx="575" cy="90" r="4" fill="currentColor" opacity="0.4" />
  <circle cx="590" cy="90" r="4" fill="currentColor" opacity="0.4" />
  <circle cx="605" cy="90" r="4" fill="currentColor" opacity="0.4" />
  <text x="575" y="125" font-family="monospace" font-size="10" fill="currentColor" opacity="0.4">function()</text>
  <line x1="575" y1="138" x2="660" y2="138" opacity="0.4" />
  <line x1="585" y1="155" x2="670" y2="155" opacity="0.4" />

  <!-- Tool 4 - Database -->
  <ellipse cx="620" cy="215" rx="40" ry="18" />
  <path d="M580 215 L580 238 Q580 256 620 256 Q660 256 660 238 L660 215" />
  <ellipse cx="620" cy="238" rx="40" ry="18" opacity="0.3" />
  <line x1="600" y1="225" x2="640" y2="225" opacity="0.4" />

  <!-- Connection lines from brain to tools -->
  <path d="M220 105 Q300 75 365 67" stroke-dasharray="5,3" />
  <polygon points="365,67 350,67 355,78" fill="currentColor" />

  <path d="M220 140 Q310 160 390 165" stroke-dasharray="5,3" />
  <polygon points="390,165 375,158 375,172" fill="currentColor" />

  <path d="M220 125 Q380 110 545 130" stroke-dasharray="5,3" />
  <polygon points="545,130 530,123 530,137" fill="currentColor" />

  <path d="M220 155 Q400 200 575 225" stroke-dasharray="5,3" />
  <polygon points="575,225 560,220 562,232" fill="currentColor" />

  <!-- Results flowing to output -->
  <rect x="820" y="55" width="180" height="150" rx="12" stroke-width="2" />
  <text x="870" y="42" font-family="monospace" font-size="12" fill="currentColor" opacity="0.4">Results</text>

  <!-- Results content -->
  <line x1="845" y1="90" x2="975" y2="90" opacity="0.5" />
  <line x1="845" y1="115" x2="960" y2="115" opacity="0.5" />
  <line x1="845" y1="140" x2="945" y2="140" opacity="0.5" />
  <rect x="845" y="155" width="55" height="28" rx="4" fill="currentColor" opacity="0.1" />
  <line x1="915" y1="165" x2="975" y2="165" opacity="0.5" />
  <line x1="915" y1="180" x2="960" y2="180" opacity="0.5" />

  <!-- Arrows from tools to results -->
  <path d="M480 67 Q650 45 805 90" stroke-width="1.5" opacity="0.4" />
  <path d="M470 165 Q640 165 805 145" stroke-width="1.5" opacity="0.4" />
  <path d="M690 130 L805 130" stroke-width="1.5" opacity="0.4" />
  <path d="M660 225 Q740 210 805 180" stroke-width="1.5" opacity="0.4" />

  <!-- Final output arrow -->
  <path d="M1000 130 L1100 130" stroke-width="2" />
  <polygon points="1100,130 1085,122 1085,138" fill="currentColor" />

  <!-- Final answer box -->
  <rect x="1120" y="70" width="150" height="110" rx="8" stroke-width="2" />
  <line x1="1145" y1="105" x2="1250" y2="105" />
  <line x1="1145" y1="128" x2="1240" y2="128" opacity="0.7" />
  <line x1="1145" y1="151" x2="1225" y2="151" opacity="0.5" />
  <path d="M1210 158 L1225 173 L1255 143" stroke-width="2" />

  <!-- More elements on right -->
  <rect x="1340" y="55" width="130" height="70" rx="6" opacity="0.3" />
  <line x1="1360" y1="80" x2="1450" y2="80" opacity="0.3" />
  <line x1="1360" y1="100" x2="1430" y2="100" opacity="0.3" />

  <rect x="1380" y="145" width="110" height="55" rx="6" opacity="0.2" />
  <line x1="1400" y1="167" x2="1470" y2="167" opacity="0.2" />
  <line x1="1400" y1="187" x2="1450" y2="187" opacity="0.2" />

  <!-- Decorative dots -->
  <circle cx="1550" cy="80" r="4" fill="currentColor" opacity="0.3" />
  <circle cx="1590" cy="100" r="4" fill="currentColor" opacity="0.3" />
  <circle cx="1630" cy="120" r="4" fill="currentColor" opacity="0.3" />
  <circle cx="1670" cy="140" r="4" fill="currentColor" opacity="0.3" />
  <circle cx="1710" cy="160" r="4" fill="currentColor" opacity="0.3" />
  <circle cx="1750" cy="180" r="4" fill="currentColor" opacity="0.3" />
</svg>
