<svg viewBox="0 0 1800 250" fill="none" stroke="currentColor" stroke-width="2" xmlns="http://www.w3.org/2000/svg">
  <!-- Neural network pattern spreading across banner -->
  <!-- Layer 1 - Input nodes -->
  <circle cx="200" cy="50" r="18" />
  <circle cx="200" cy="125" r="18" />
  <circle cx="200" cy="200" r="18" />

  <!-- Layer 2 -->
  <circle cx="420" cy="40" r="16" />
  <circle cx="420" cy="95" r="16" />
  <circle cx="420" cy="155" r="16" />
  <circle cx="420" cy="210" r="16" />

  <!-- Layer 3 - Hidden -->
  <circle cx="640" cy="55" r="14" />
  <circle cx="640" cy="105" r="14" />
  <circle cx="640" cy="145" r="14" />
  <circle cx="640" cy="195" r="14" />

  <!-- Layer 4 - Deep hidden -->
  <circle cx="860" cy="70" r="14" />
  <circle cx="860" cy="125" r="14" />
  <circle cx="860" cy="180" r="14" />

  <!-- Layer 5 -->
  <circle cx="1080" cy="55" r="16" />
  <circle cx="1080" cy="105" r="16" />
  <circle cx="1080" cy="145" r="16" />
  <circle cx="1080" cy="195" r="16" />

  <!-- Layer 6 - Output -->
  <circle cx="1300" cy="80" r="18" />
  <circle cx="1300" cy="125" r="18" />
  <circle cx="1300" cy="170" r="18" />

  <!-- Connections Layer 1 to 2 -->
  <line x1="218" y1="50" x2="404" y2="40" opacity="0.3" />
  <line x1="218" y1="50" x2="404" y2="95" opacity="0.3" />
  <line x1="218" y1="125" x2="404" y2="95" opacity="0.3" />
  <line x1="218" y1="125" x2="404" y2="155" opacity="0.3" />
  <line x1="218" y1="200" x2="404" y2="155" opacity="0.3" />
  <line x1="218" y1="200" x2="404" y2="210" opacity="0.3" />

  <!-- Connections Layer 2 to 3 -->
  <line x1="436" y1="40" x2="626" y2="55" opacity="0.4" />
  <line x1="436" y1="95" x2="626" y2="105" opacity="0.4" />
  <line x1="436" y1="155" x2="626" y2="145" opacity="0.4" />
  <line x1="436" y1="210" x2="626" y2="195" opacity="0.4" />
  <line x1="436" y1="40" x2="626" y2="105" opacity="0.2" />
  <line x1="436" y1="95" x2="626" y2="145" opacity="0.2" />

  <!-- Connections Layer 3 to 4 -->
  <line x1="654" y1="55" x2="846" y2="70" opacity="0.5" />
  <line x1="654" y1="105" x2="846" y2="125" opacity="0.5" />
  <line x1="654" y1="145" x2="846" y2="125" opacity="0.5" />
  <line x1="654" y1="195" x2="846" y2="180" opacity="0.5" />
  <line x1="654" y1="105" x2="846" y2="70" opacity="0.2" />
  <line x1="654" y1="145" x2="846" y2="180" opacity="0.2" />

  <!-- Connections Layer 4 to 5 -->
  <line x1="874" y1="70" x2="1064" y2="55" opacity="0.4" />
  <line x1="874" y1="125" x2="1064" y2="105" opacity="0.4" />
  <line x1="874" y1="125" x2="1064" y2="145" opacity="0.4" />
  <line x1="874" y1="180" x2="1064" y2="195" opacity="0.4" />
  <line x1="874" y1="70" x2="1064" y2="105" opacity="0.2" />

  <!-- Connections Layer 5 to 6 -->
  <line x1="1096" y1="55" x2="1282" y2="80" opacity="0.3" />
  <line x1="1096" y1="105" x2="1282" y2="125" opacity="0.3" />
  <line x1="1096" y1="145" x2="1282" y2="125" opacity="0.3" />
  <line x1="1096" y1="195" x2="1282" y2="170" opacity="0.3" />

  <!-- Decorative pulses/signals -->
  <circle cx="310" cy="75" r="5" fill="currentColor" opacity="0.6" />
  <circle cx="530" cy="130" r="5" fill="currentColor" opacity="0.6" />
  <circle cx="750" cy="95" r="5" fill="currentColor" opacity="0.6" />
  <circle cx="970" cy="150" r="5" fill="currentColor" opacity="0.6" />
  <circle cx="1190" cy="110" r="5" fill="currentColor" opacity="0.6" />

  <!-- Brain-like curve accents -->
  <path d="M1400 60 Q1470 30 1540 60" stroke-width="1.5" opacity="0.4" />
  <path d="M1400 125 Q1500 100 1600 125" stroke-width="1.5" opacity="0.4" />
  <path d="M1400 190 Q1470 220 1540 190" stroke-width="1.5" opacity="0.4" />

  <!-- More network extending right -->
  <circle cx="1520" cy="60" r="12" opacity="0.5" />
  <circle cx="1520" cy="125" r="12" opacity="0.5" />
  <circle cx="1520" cy="190" r="12" opacity="0.5" />
  <line x1="1318" y1="80" x2="1508" y2="60" opacity="0.2" />
  <line x1="1318" y1="125" x2="1508" y2="125" opacity="0.2" />
  <line x1="1318" y1="170" x2="1508" y2="190" opacity="0.2" />

  <circle cx="1700" cy="90" r="10" opacity="0.3" />
  <circle cx="1700" cy="160" r="10" opacity="0.3" />
  <line x1="1532" y1="60" x2="1690" y2="90" opacity="0.15" />
  <line x1="1532" y1="125" x2="1690" y2="90" opacity="0.15" />
  <line x1="1532" y1="125" x2="1690" y2="160" opacity="0.15" />
  <line x1="1532" y1="190" x2="1690" y2="160" opacity="0.15" />

  <!-- Left side accents -->
  <path d="M50 70 Q80 50 110 70" stroke-width="1.5" opacity="0.4" />
  <path d="M50 125 Q80 145 110 125" stroke-width="1.5" opacity="0.4" />
  <path d="M50 180 Q80 200 110 180" stroke-width="1.5" opacity="0.4" />
</svg>
